<svg width="151" height="85" viewBox="0 0 151 85" fill="none" xmlns="http://www.w3.org/2000/svg">
<path d="M28 60.5C36.6953 60.5 43.75 53.4453 43.75 44.75C43.75 36.0547 36.6953 29 28 29C19.3047 29 12.25 36.0547 12.25 44.75C12.25 53.4453 19.3047 60.5 28 60.5ZM42 64H35.9734C33.5453 65.1156 30.8438 65.75 28 65.75C25.1562 65.75 22.4656 65.1156 20.0266 64H14C6.26719 64 0 70.2672 0 78V79.75C0 82.6484 2.35156 85 5.25 85H50.75C53.6484 85 56 82.6484 56 79.75V78C56 70.2672 49.7328 64 42 64Z" fill="#F3EDFF"/>
<path d="M98 60.5C106.695 60.5 113.75 53.4453 113.75 44.75C113.75 36.0547 106.695 29 98 29C89.3047 29 82.25 36.0547 82.25 44.75C82.25 53.4453 89.3047 60.5 98 60.5ZM112 64H105.973C103.545 65.1156 100.844 65.75 98 65.75C95.1562 65.75 92.4656 65.1156 90.0266 64H84C76.2672 64 70 70.2672 70 78V79.75C70 82.6484 72.3516 85 75.25 85H120.75C123.648 85 126 82.6484 126 79.75V78C126 70.2672 119.733 64 112 64Z" fill="#F3EDFF"/>
<path d="M135 1.466C126.973 1.466 120.466 7.973 120.466 16C120.466 24.027 126.973 30.534 135 30.534C143.027 30.534 149.534 24.027 149.534 16C149.534 7.973 143.027 1.466 135 1.466ZM136.255 23.88V25.927H134.297V23.903C131.084 23.463 129.677 20.823 129.677 20.823L131.677 19.15C131.677 19.15 132.954 21.373 135.264 21.373C136.54 21.373 137.508 20.69 137.508 19.523C137.508 16.795 130.158 17.126 130.158 12.065C130.158 9.865 131.898 8.28 134.296 7.905V5.86H136.254V7.905C137.926 8.125 139.906 9.005 139.906 10.898V12.35H137.31V11.646C137.31 10.92 136.385 10.436 135.35 10.436C134.03 10.436 133.063 11.096 133.063 12.02C133.063 14.814 140.413 14.132 140.413 19.435C140.413 21.615 138.785 23.505 136.255 23.88Z" fill="#99D18D"/>
</svg>
